<mxfile host="app.diagrams.net" modified="2024-05-29T03:33:00.516Z" agent="Mozilla/5.0 (Windows NT 10.0; Win64; x64) AppleWebKit/537.36 (KHTML, like Gecko) Chrome/125.0.0.0 Safari/537.36 Edg/125.0.0.0" etag="ecogaCO4Qh5hPKjvXE6S" version="24.4.9" type="device">
  <diagram name="PÃ¡gina-1" id="sAFdhdFteXCZYTJlG2C-">
    <mxGraphModel dx="1336" dy="759" grid="1" gridSize="10" guides="1" tooltips="1" connect="1" arrows="1" fold="1" page="1" pageScale="1" pageWidth="827" pageHeight="1169" math="0" shadow="0">
      <root>
        <mxCell id="0" />
        <mxCell id="1" parent="0" />
        <mxCell id="Vo4dQc2RpNnDrpm86Aar-10" style="edgeStyle=orthogonalEdgeStyle;curved=1;rounded=0;orthogonalLoop=1;jettySize=auto;html=1;" edge="1" parent="1" source="Vo4dQc2RpNnDrpm86Aar-1" target="Vo4dQc2RpNnDrpm86Aar-3">
          <mxGeometry relative="1" as="geometry">
            <Array as="points">
              <mxPoint x="134" y="120" />
            </Array>
          </mxGeometry>
        </mxCell>
        <mxCell id="Vo4dQc2RpNnDrpm86Aar-1" value="" style="sketch=0;outlineConnect=0;fontColor=#232F3E;gradientColor=none;fillColor=#ED7100;strokeColor=none;dashed=0;verticalLabelPosition=bottom;verticalAlign=top;align=center;html=1;fontSize=12;fontStyle=0;aspect=fixed;pointerEvents=1;shape=mxgraph.aws4.ec2_aws_microservice_extractor_for_net;" vertex="1" parent="1">
          <mxGeometry x="226.8" y="264" width="48" height="48" as="geometry" />
        </mxCell>
        <mxCell id="Vo4dQc2RpNnDrpm86Aar-2" value="&lt;font style=&quot;font-size: 8px;&quot;&gt;CRON&lt;/font&gt;" style="text;html=1;align=center;verticalAlign=middle;whiteSpace=wrap;rounded=0;fontSize=11;" vertex="1" parent="1">
          <mxGeometry x="220.8" y="312" width="60" height="22" as="geometry" />
        </mxCell>
        <mxCell id="Vo4dQc2RpNnDrpm86Aar-27" style="edgeStyle=orthogonalEdgeStyle;curved=1;rounded=0;orthogonalLoop=1;jettySize=auto;html=1;" edge="1" parent="1" source="Vo4dQc2RpNnDrpm86Aar-3" target="Vo4dQc2RpNnDrpm86Aar-25">
          <mxGeometry relative="1" as="geometry" />
        </mxCell>
        <mxCell id="Vo4dQc2RpNnDrpm86Aar-3" value="" style="shadow=0;dashed=0;html=1;strokeColor=none;fillColor=#EF8F21;labelPosition=center;verticalLabelPosition=bottom;verticalAlign=top;align=center;outlineConnect=0;shape=mxgraph.veeam.2d.restful_apis;" vertex="1" parent="1">
          <mxGeometry x="230" y="100" width="44.8" height="44.8" as="geometry" />
        </mxCell>
        <mxCell id="Vo4dQc2RpNnDrpm86Aar-16" value="" style="group;fontColor=#FFFFFF;" vertex="1" connectable="0" parent="1">
          <mxGeometry x="120" y="180" width="40" height="42" as="geometry" />
        </mxCell>
        <mxCell id="Vo4dQc2RpNnDrpm86Aar-14" value="" style="ellipse;whiteSpace=wrap;html=1;aspect=fixed;fillColor=#FF9933;strokeColor=none;" vertex="1" parent="Vo4dQc2RpNnDrpm86Aar-16">
          <mxGeometry width="30" height="30" as="geometry" />
        </mxCell>
        <mxCell id="Vo4dQc2RpNnDrpm86Aar-4" value="1" style="text;html=1;align=center;verticalAlign=middle;whiteSpace=wrap;rounded=0;fontColor=#FFFFFF;" vertex="1" parent="Vo4dQc2RpNnDrpm86Aar-16">
          <mxGeometry x="-10" y="5" width="50" height="20" as="geometry" />
        </mxCell>
        <mxCell id="Vo4dQc2RpNnDrpm86Aar-23" value="&lt;font style=&quot;font-size: 9px;&quot;&gt;&lt;b&gt;cron&lt;/b&gt; se encarga de enviar y controlar los registros enviados al ApiRest por medio del endpoint Analizer&lt;/font&gt;" style="text;html=1;align=center;verticalAlign=middle;whiteSpace=wrap;rounded=0;strokeColor=#FF9933;" vertex="1" parent="1">
          <mxGeometry x="200" y="200" width="160" height="40" as="geometry" />
        </mxCell>
        <mxCell id="Vo4dQc2RpNnDrpm86Aar-24" value="&lt;font style=&quot;font-size: 8px;&quot;&gt;APIREST&lt;/font&gt;" style="text;html=1;align=center;verticalAlign=middle;whiteSpace=wrap;rounded=0;fontSize=11;" vertex="1" parent="1">
          <mxGeometry x="222.4" y="83" width="60" height="22" as="geometry" />
        </mxCell>
        <mxCell id="Vo4dQc2RpNnDrpm86Aar-25" value="" style="sketch=0;outlineConnect=0;fontColor=#232F3E;gradientColor=none;fillColor=#FF9933;strokeColor=none;dashed=0;verticalLabelPosition=bottom;verticalAlign=top;align=center;html=1;fontSize=12;fontStyle=0;aspect=fixed;pointerEvents=1;shape=mxgraph.aws4.opensearch_service_traces;" vertex="1" parent="1">
          <mxGeometry x="380" y="103.4" width="38" height="38" as="geometry" />
        </mxCell>
        <mxCell id="Vo4dQc2RpNnDrpm86Aar-28" value="&lt;font style=&quot;font-size: 8px;&quot;&gt;RESPUESTA VEREDICTO&lt;/font&gt;" style="text;html=1;align=center;verticalAlign=middle;whiteSpace=wrap;rounded=0;fontSize=11;" vertex="1" parent="1">
          <mxGeometry x="372" y="83" width="111" height="22" as="geometry" />
        </mxCell>
        <mxCell id="Vo4dQc2RpNnDrpm86Aar-30" value="" style="group;fontColor=#FFFFFF;" vertex="1" connectable="0" parent="1">
          <mxGeometry x="310" y="105" width="40" height="42" as="geometry" />
        </mxCell>
        <mxCell id="Vo4dQc2RpNnDrpm86Aar-34" style="edgeStyle=orthogonalEdgeStyle;curved=1;rounded=0;orthogonalLoop=1;jettySize=auto;html=1;strokeColor=#FF9933;dashed=1;endArrow=oval;endFill=1;" edge="1" parent="Vo4dQc2RpNnDrpm86Aar-30" source="Vo4dQc2RpNnDrpm86Aar-31">
          <mxGeometry relative="1" as="geometry">
            <mxPoint x="15" y="-45" as="targetPoint" />
          </mxGeometry>
        </mxCell>
        <mxCell id="Vo4dQc2RpNnDrpm86Aar-31" value="&lt;font color=&quot;#ffffff&quot;&gt;2&lt;/font&gt;" style="ellipse;whiteSpace=wrap;html=1;aspect=fixed;fillColor=#FF9933;strokeColor=none;" vertex="1" parent="Vo4dQc2RpNnDrpm86Aar-30">
          <mxGeometry width="30" height="30" as="geometry" />
        </mxCell>
        <mxCell id="Vo4dQc2RpNnDrpm86Aar-33" value="&lt;font size=&quot;1&quot;&gt;&lt;b style=&quot;font-size: 8px;&quot;&gt;APIREST &lt;/b&gt;&lt;span style=&quot;font-size: 8px;&quot;&gt;recibe los registros necesarios para que el modelo funcione perfectamente ,Datos relevante del modelo la mision ,las clases y la foto en formato URL&lt;/span&gt;&lt;/font&gt;" style="text;html=1;align=center;verticalAlign=middle;whiteSpace=wrap;rounded=0;strokeColor=#FF9933;" vertex="1" parent="1">
          <mxGeometry x="254" y="10" width="206" height="40" as="geometry" />
        </mxCell>
        <mxCell id="Vo4dQc2RpNnDrpm86Aar-49" style="edgeStyle=orthogonalEdgeStyle;curved=1;rounded=0;orthogonalLoop=1;jettySize=auto;html=1;entryX=1;entryY=0.5;entryDx=0;entryDy=0;" edge="1" parent="1" source="Vo4dQc2RpNnDrpm86Aar-35" target="Vo4dQc2RpNnDrpm86Aar-43">
          <mxGeometry relative="1" as="geometry">
            <Array as="points">
              <mxPoint x="680" y="120" />
              <mxPoint x="680" y="287" />
            </Array>
          </mxGeometry>
        </mxCell>
        <mxCell id="Vo4dQc2RpNnDrpm86Aar-35" value="" style="sketch=0;points=[[0,0,0],[0.25,0,0],[0.5,0,0],[0.75,0,0],[1,0,0],[0,1,0],[0.25,1,0],[0.5,1,0],[0.75,1,0],[1,1,0],[0,0.25,0],[0,0.5,0],[0,0.75,0],[1,0.25,0],[1,0.5,0],[1,0.75,0]];outlineConnect=0;fontColor=#232F3E;fillColor=#FF9933;strokeColor=#ffffff;dashed=0;verticalLabelPosition=bottom;verticalAlign=top;align=center;html=1;fontSize=12;fontStyle=0;shape=mxgraph.aws4.resourceIcon;resIcon=mxgraph.aws4.neptune;" vertex="1" parent="1">
          <mxGeometry x="570" y="100" width="44.8" height="44.8" as="geometry" />
        </mxCell>
        <mxCell id="Vo4dQc2RpNnDrpm86Aar-36" value="&lt;font style=&quot;font-size: 8px;&quot;&gt;BD&lt;/font&gt;" style="text;html=1;align=center;verticalAlign=middle;whiteSpace=wrap;rounded=0;fontSize=11;" vertex="1" parent="1">
          <mxGeometry x="572.4" y="83" width="40" height="22" as="geometry" />
        </mxCell>
        <mxCell id="Vo4dQc2RpNnDrpm86Aar-37" style="edgeStyle=orthogonalEdgeStyle;curved=1;rounded=0;orthogonalLoop=1;jettySize=auto;html=1;entryX=0;entryY=0.5;entryDx=0;entryDy=0;entryPerimeter=0;" edge="1" parent="1" source="Vo4dQc2RpNnDrpm86Aar-25" target="Vo4dQc2RpNnDrpm86Aar-35">
          <mxGeometry relative="1" as="geometry" />
        </mxCell>
        <mxCell id="Vo4dQc2RpNnDrpm86Aar-38" value="" style="group;fontColor=#FFFFFF;" vertex="1" connectable="0" parent="1">
          <mxGeometry x="490" y="105" width="40" height="42" as="geometry" />
        </mxCell>
        <mxCell id="Vo4dQc2RpNnDrpm86Aar-40" value="&lt;font color=&quot;#ffffff&quot;&gt;3&lt;/font&gt;" style="ellipse;whiteSpace=wrap;html=1;aspect=fixed;fillColor=#FF9933;strokeColor=none;" vertex="1" parent="Vo4dQc2RpNnDrpm86Aar-38">
          <mxGeometry width="30" height="30" as="geometry" />
        </mxCell>
        <mxCell id="Vo4dQc2RpNnDrpm86Aar-41" value="&lt;span style=&quot;font-size: 8px;&quot;&gt;Los resultados del API son enviados a la Base de Datos&amp;nbsp;&lt;/span&gt;" style="text;html=1;align=center;verticalAlign=middle;whiteSpace=wrap;rounded=0;strokeColor=#FF9933;" vertex="1" parent="1">
          <mxGeometry x="440" y="160" width="130" height="40" as="geometry" />
        </mxCell>
        <mxCell id="Vo4dQc2RpNnDrpm86Aar-42" style="edgeStyle=orthogonalEdgeStyle;curved=1;rounded=0;orthogonalLoop=1;jettySize=auto;html=1;dashed=1;strokeColor=#FF9933;align=center;verticalAlign=middle;fontFamily=Helvetica;fontSize=11;fontColor=default;labelBackgroundColor=default;endArrow=oval;endFill=1;" edge="1" parent="1" source="Vo4dQc2RpNnDrpm86Aar-40" target="Vo4dQc2RpNnDrpm86Aar-41">
          <mxGeometry relative="1" as="geometry" />
        </mxCell>
        <mxCell id="Vo4dQc2RpNnDrpm86Aar-52" style="edgeStyle=orthogonalEdgeStyle;curved=1;rounded=0;orthogonalLoop=1;jettySize=auto;html=1;" edge="1" parent="1" source="Vo4dQc2RpNnDrpm86Aar-53" target="Vo4dQc2RpNnDrpm86Aar-1">
          <mxGeometry relative="1" as="geometry" />
        </mxCell>
        <mxCell id="Vo4dQc2RpNnDrpm86Aar-43" value="&lt;font color=&quot;#ffffff&quot; style=&quot;font-size: 8px;&quot;&gt;proceso:1&lt;/font&gt;" style="rhombus;whiteSpace=wrap;html=1;fillColor=#FF9933;strokeColor=#FF9933;" vertex="1" parent="1">
          <mxGeometry x="570" y="262" width="50" height="50" as="geometry" />
        </mxCell>
        <mxCell id="Vo4dQc2RpNnDrpm86Aar-45" value="" style="group;fontColor=#FFFFFF;" vertex="1" connectable="0" parent="1">
          <mxGeometry x="660" y="180" width="40" height="42" as="geometry" />
        </mxCell>
        <mxCell id="Vo4dQc2RpNnDrpm86Aar-46" value="&lt;font color=&quot;#ffffff&quot;&gt;4&lt;/font&gt;" style="ellipse;whiteSpace=wrap;html=1;aspect=fixed;fillColor=#FF9933;strokeColor=none;" vertex="1" parent="Vo4dQc2RpNnDrpm86Aar-45">
          <mxGeometry width="30" height="30" as="geometry" />
        </mxCell>
        <mxCell id="Vo4dQc2RpNnDrpm86Aar-47" value="&lt;span style=&quot;font-size: 8px;&quot;&gt;El proceso de veredicto es marcado a 1 :indicando que la imagen fue procesada&lt;/span&gt;" style="text;html=1;align=center;verticalAlign=middle;whiteSpace=wrap;rounded=0;strokeColor=#FF9933;strokeWidth=1;" vertex="1" parent="1">
          <mxGeometry x="480" y="210" width="160" height="40" as="geometry" />
        </mxCell>
        <mxCell id="Vo4dQc2RpNnDrpm86Aar-50" style="edgeStyle=orthogonalEdgeStyle;curved=1;rounded=0;orthogonalLoop=1;jettySize=auto;html=1;entryX=1;entryY=0;entryDx=0;entryDy=0;dashed=1;strokeColor=#FF9933;align=center;verticalAlign=middle;fontFamily=Helvetica;fontSize=11;fontColor=default;labelBackgroundColor=default;endArrow=oval;endFill=1;" edge="1" parent="1" source="Vo4dQc2RpNnDrpm86Aar-46" target="Vo4dQc2RpNnDrpm86Aar-47">
          <mxGeometry relative="1" as="geometry" />
        </mxCell>
        <mxCell id="Vo4dQc2RpNnDrpm86Aar-51" style="edgeStyle=orthogonalEdgeStyle;curved=1;rounded=0;orthogonalLoop=1;jettySize=auto;html=1;dashed=1;strokeColor=#FF9933;align=center;verticalAlign=middle;fontFamily=Helvetica;fontSize=11;fontColor=default;labelBackgroundColor=default;endArrow=oval;endFill=1;" edge="1" parent="1" source="Vo4dQc2RpNnDrpm86Aar-4" target="Vo4dQc2RpNnDrpm86Aar-23">
          <mxGeometry relative="1" as="geometry" />
        </mxCell>
        <mxCell id="Vo4dQc2RpNnDrpm86Aar-54" value="" style="edgeStyle=orthogonalEdgeStyle;curved=1;rounded=0;orthogonalLoop=1;jettySize=auto;html=1;" edge="1" parent="1" source="Vo4dQc2RpNnDrpm86Aar-43" target="Vo4dQc2RpNnDrpm86Aar-53">
          <mxGeometry relative="1" as="geometry">
            <mxPoint x="570" y="287" as="sourcePoint" />
            <mxPoint x="275" y="288" as="targetPoint" />
          </mxGeometry>
        </mxCell>
        <mxCell id="Vo4dQc2RpNnDrpm86Aar-56" style="edgeStyle=orthogonalEdgeStyle;curved=1;rounded=0;orthogonalLoop=1;jettySize=auto;html=1;entryX=0.5;entryY=0;entryDx=0;entryDy=0;dashed=1;strokeColor=#FF9933;align=center;verticalAlign=middle;fontFamily=Helvetica;fontSize=11;fontColor=default;labelBackgroundColor=default;endArrow=oval;endFill=1;" edge="1" parent="1" source="Vo4dQc2RpNnDrpm86Aar-53" target="Vo4dQc2RpNnDrpm86Aar-55">
          <mxGeometry relative="1" as="geometry" />
        </mxCell>
        <mxCell id="Vo4dQc2RpNnDrpm86Aar-53" value="&lt;font color=&quot;#ffffff&quot;&gt;5&lt;/font&gt;" style="ellipse;whiteSpace=wrap;html=1;aspect=fixed;fillColor=#FF9933;strokeColor=none;" vertex="1" parent="1">
          <mxGeometry x="399" y="272" width="30" height="30" as="geometry" />
        </mxCell>
        <mxCell id="Vo4dQc2RpNnDrpm86Aar-55" value="&lt;span style=&quot;font-size: 8px;&quot;&gt;Este Proceso se repite cada minuto procesando las fotos encontradas con proceso en :0&lt;/span&gt;" style="text;html=1;align=center;verticalAlign=middle;whiteSpace=wrap;rounded=0;strokeColor=#FF9933;strokeWidth=1;" vertex="1" parent="1">
          <mxGeometry x="304" y="334" width="220" height="40" as="geometry" />
        </mxCell>
        <mxCell id="Vo4dQc2RpNnDrpm86Aar-71" style="edgeStyle=orthogonalEdgeStyle;curved=1;rounded=0;orthogonalLoop=1;jettySize=auto;html=1;entryX=0.5;entryY=0;entryDx=0;entryDy=0;" edge="1" parent="1" source="Vo4dQc2RpNnDrpm86Aar-58" target="Vo4dQc2RpNnDrpm86Aar-62">
          <mxGeometry relative="1" as="geometry" />
        </mxCell>
        <mxCell id="Vo4dQc2RpNnDrpm86Aar-58" value="&lt;font style=&quot;font-size: 10px;&quot;&gt;Body Json&amp;nbsp;&lt;/font&gt;" style="shape=parallelogram;html=1;strokeWidth=2;perimeter=parallelogramPerimeter;whiteSpace=wrap;rounded=1;arcSize=12;size=0.23;" vertex="1" parent="1">
          <mxGeometry x="360" y="640" width="100" height="60" as="geometry" />
        </mxCell>
        <mxCell id="Vo4dQc2RpNnDrpm86Aar-61" style="edgeStyle=orthogonalEdgeStyle;curved=1;rounded=0;orthogonalLoop=1;jettySize=auto;html=1;" edge="1" parent="1" source="Vo4dQc2RpNnDrpm86Aar-60" target="Vo4dQc2RpNnDrpm86Aar-58">
          <mxGeometry relative="1" as="geometry" />
        </mxCell>
        <mxCell id="Vo4dQc2RpNnDrpm86Aar-60" value="&lt;span style=&quot;font-size: 10px;&quot;&gt;Endpoint Analizer&lt;/span&gt;" style="strokeWidth=2;html=1;shape=mxgraph.flowchart.start_2;whiteSpace=wrap;" vertex="1" parent="1">
          <mxGeometry x="360" y="510" width="100" height="100" as="geometry" />
        </mxCell>
        <mxCell id="Vo4dQc2RpNnDrpm86Aar-64" style="edgeStyle=orthogonalEdgeStyle;rounded=0;orthogonalLoop=1;jettySize=auto;html=1;entryX=0.5;entryY=0;entryDx=0;entryDy=0;" edge="1" parent="1" source="Vo4dQc2RpNnDrpm86Aar-62" target="Vo4dQc2RpNnDrpm86Aar-63">
          <mxGeometry relative="1" as="geometry" />
        </mxCell>
        <mxCell id="Vo4dQc2RpNnDrpm86Aar-68" style="edgeStyle=orthogonalEdgeStyle;curved=1;rounded=0;orthogonalLoop=1;jettySize=auto;html=1;entryX=0.5;entryY=0;entryDx=0;entryDy=0;" edge="1" parent="1" source="Vo4dQc2RpNnDrpm86Aar-62" target="Vo4dQc2RpNnDrpm86Aar-67">
          <mxGeometry relative="1" as="geometry" />
        </mxCell>
        <mxCell id="Vo4dQc2RpNnDrpm86Aar-62" value="Load" style="rounded=1;whiteSpace=wrap;html=1;absoluteArcSize=1;arcSize=14;strokeWidth=2;" vertex="1" parent="1">
          <mxGeometry x="360" y="740" width="100" height="50" as="geometry" />
        </mxCell>
        <mxCell id="Vo4dQc2RpNnDrpm86Aar-66" style="edgeStyle=orthogonalEdgeStyle;curved=1;rounded=0;orthogonalLoop=1;jettySize=auto;html=1;entryX=0.5;entryY=0;entryDx=0;entryDy=0;" edge="1" parent="1" source="Vo4dQc2RpNnDrpm86Aar-63" target="Vo4dQc2RpNnDrpm86Aar-65">
          <mxGeometry relative="1" as="geometry" />
        </mxCell>
        <mxCell id="Vo4dQc2RpNnDrpm86Aar-63" value="&lt;div style=&quot;font-family: Consolas, &amp;quot;Courier New&amp;quot;, monospace; line-height: 19px; white-space: pre; font-size: 10px;&quot;&gt;MÃ©todo Post&lt;/div&gt;&lt;div style=&quot;font-family: Consolas, &amp;quot;Courier New&amp;quot;, monospace; line-height: 19px; white-space: pre; font-size: 10px;&quot;&gt;@router.post(&quot;/ia/mision&quot;)&lt;/div&gt;" style="rounded=1;whiteSpace=wrap;html=1;absoluteArcSize=1;arcSize=14;strokeWidth=2;strokeColor=default;align=center;verticalAlign=middle;fontFamily=Helvetica;fontSize=12;fontColor=default;fillColor=default;" vertex="1" parent="1">
          <mxGeometry x="130" y="830" width="190" height="50" as="geometry" />
        </mxCell>
        <mxCell id="Vo4dQc2RpNnDrpm86Aar-72" style="edgeStyle=orthogonalEdgeStyle;curved=1;rounded=0;orthogonalLoop=1;jettySize=auto;html=1;entryX=0;entryY=0.5;entryDx=0;entryDy=0;" edge="1" parent="1" source="Vo4dQc2RpNnDrpm86Aar-65" target="Vo4dQc2RpNnDrpm86Aar-69">
          <mxGeometry relative="1" as="geometry" />
        </mxCell>
        <mxCell id="Vo4dQc2RpNnDrpm86Aar-65" value="&lt;div style=&quot;font-family: Consolas, &amp;quot;Courier New&amp;quot;, monospace; line-height: 19px; white-space: pre;&quot;&gt;&lt;div style=&quot;line-height: 19px;&quot;&gt;&lt;font style=&quot;font-size: 10px;&quot;&gt;FunciÃ³n&lt;/font&gt;&lt;/div&gt;&lt;div style=&quot;line-height: 19px;&quot;&gt;&lt;font style=&quot;font-size: 10px;&quot;&gt;Reconocimiento&lt;/font&gt;&lt;/div&gt;&lt;/div&gt;" style="rounded=1;whiteSpace=wrap;html=1;absoluteArcSize=1;arcSize=14;strokeWidth=2;" vertex="1" parent="1">
          <mxGeometry x="174.8" y="920" width="100" height="50" as="geometry" />
        </mxCell>
        <mxCell id="Vo4dQc2RpNnDrpm86Aar-70" style="edgeStyle=orthogonalEdgeStyle;curved=1;rounded=0;orthogonalLoop=1;jettySize=auto;html=1;entryX=0.5;entryY=0;entryDx=0;entryDy=0;" edge="1" parent="1" source="Vo4dQc2RpNnDrpm86Aar-67" target="Vo4dQc2RpNnDrpm86Aar-69">
          <mxGeometry relative="1" as="geometry" />
        </mxCell>
        <mxCell id="Vo4dQc2RpNnDrpm86Aar-76" style="edgeStyle=orthogonalEdgeStyle;rounded=0;orthogonalLoop=1;jettySize=auto;html=1;entryX=0.5;entryY=0;entryDx=0;entryDy=0;" edge="1" parent="1" source="Vo4dQc2RpNnDrpm86Aar-67" target="Vo4dQc2RpNnDrpm86Aar-75">
          <mxGeometry relative="1" as="geometry" />
        </mxCell>
        <mxCell id="Vo4dQc2RpNnDrpm86Aar-67" value="Model" style="rounded=1;whiteSpace=wrap;html=1;absoluteArcSize=1;arcSize=14;strokeWidth=2;" vertex="1" parent="1">
          <mxGeometry x="360" y="830" width="100" height="50" as="geometry" />
        </mxCell>
        <mxCell id="Vo4dQc2RpNnDrpm86Aar-74" style="edgeStyle=orthogonalEdgeStyle;curved=1;rounded=0;orthogonalLoop=1;jettySize=auto;html=1;" edge="1" parent="1" source="Vo4dQc2RpNnDrpm86Aar-69" target="Vo4dQc2RpNnDrpm86Aar-73">
          <mxGeometry relative="1" as="geometry" />
        </mxCell>
        <mxCell id="Vo4dQc2RpNnDrpm86Aar-69" value="&lt;div style=&quot;font-family: Consolas, &amp;quot;Courier New&amp;quot;, monospace; line-height: 19px; white-space: pre;&quot;&gt;&lt;div style=&quot;line-height: 19px;&quot;&gt;&lt;span style=&quot;font-size: 10px; background-color: initial;&quot;&gt;Clase&lt;/span&gt;&lt;/div&gt;&lt;div style=&quot;line-height: 19px;&quot;&gt;&lt;span style=&quot;font-size: 10px; background-color: initial;&quot;&gt;ModeloMain&lt;/span&gt;&lt;br&gt;&lt;/div&gt;&lt;/div&gt;" style="rounded=1;whiteSpace=wrap;html=1;absoluteArcSize=1;arcSize=14;strokeWidth=2;" vertex="1" parent="1">
          <mxGeometry x="360" y="920" width="100" height="50" as="geometry" />
        </mxCell>
        <mxCell id="Vo4dQc2RpNnDrpm86Aar-77" style="edgeStyle=orthogonalEdgeStyle;curved=1;rounded=0;orthogonalLoop=1;jettySize=auto;html=1;entryX=0;entryY=0.5;entryDx=0;entryDy=0;" edge="1" parent="1" source="Vo4dQc2RpNnDrpm86Aar-73" target="Vo4dQc2RpNnDrpm86Aar-75">
          <mxGeometry relative="1" as="geometry" />
        </mxCell>
        <mxCell id="Vo4dQc2RpNnDrpm86Aar-73" value="&lt;div style=&quot;font-family: Consolas, &amp;quot;Courier New&amp;quot;, monospace; line-height: 19px; white-space: pre;&quot;&gt;&lt;div style=&quot;line-height: 19px;&quot;&gt;&lt;font style=&quot;font-size: 10px;&quot;&gt;FunciÃ³n&lt;/font&gt;&lt;/div&gt;&lt;div style=&quot;line-height: 19px;&quot;&gt;&lt;font style=&quot;font-size: 10px;&quot;&gt;MisiÃ³n&lt;/font&gt;&lt;/div&gt;&lt;/div&gt;" style="rounded=1;whiteSpace=wrap;html=1;absoluteArcSize=1;arcSize=14;strokeWidth=2;" vertex="1" parent="1">
          <mxGeometry x="360" y="1000" width="100" height="50" as="geometry" />
        </mxCell>
        <mxCell id="Vo4dQc2RpNnDrpm86Aar-79" style="edgeStyle=orthogonalEdgeStyle;curved=1;rounded=0;orthogonalLoop=1;jettySize=auto;html=1;entryX=0.5;entryY=0;entryDx=0;entryDy=0;" edge="1" parent="1" source="Vo4dQc2RpNnDrpm86Aar-75" target="Vo4dQc2RpNnDrpm86Aar-78">
          <mxGeometry relative="1" as="geometry" />
        </mxCell>
        <mxCell id="Vo4dQc2RpNnDrpm86Aar-75" value="&lt;div style=&quot;font-family: Consolas, &amp;quot;Courier New&amp;quot;, monospace; line-height: 19px; white-space: pre;&quot;&gt;&lt;div style=&quot;line-height: 19px;&quot;&gt;&lt;span style=&quot;font-size: 10px; background-color: initial;&quot;&gt;Clase&lt;/span&gt;&lt;/div&gt;&lt;div style=&quot;line-height: 19px;&quot;&gt;&lt;span style=&quot;font-size: 10px;&quot;&gt;YoloNAS&lt;/span&gt;&lt;/div&gt;&lt;/div&gt;" style="rounded=1;whiteSpace=wrap;html=1;absoluteArcSize=1;arcSize=14;strokeWidth=2;" vertex="1" parent="1">
          <mxGeometry x="540" y="1000" width="100" height="50" as="geometry" />
        </mxCell>
        <mxCell id="Vo4dQc2RpNnDrpm86Aar-82" style="edgeStyle=orthogonalEdgeStyle;rounded=0;orthogonalLoop=1;jettySize=auto;html=1;entryX=0.5;entryY=0;entryDx=0;entryDy=0;strokeColor=default;align=center;verticalAlign=middle;fontFamily=Helvetica;fontSize=11;fontColor=default;labelBackgroundColor=default;startArrow=classic;startFill=1;endArrow=classic;" edge="1" parent="1" source="Vo4dQc2RpNnDrpm86Aar-78" target="Vo4dQc2RpNnDrpm86Aar-80">
          <mxGeometry relative="1" as="geometry" />
        </mxCell>
        <mxCell id="Vo4dQc2RpNnDrpm86Aar-89" style="edgeStyle=orthogonalEdgeStyle;rounded=0;orthogonalLoop=1;jettySize=auto;html=1;entryX=0.5;entryY=0;entryDx=0;entryDy=0;strokeColor=default;align=center;verticalAlign=middle;fontFamily=Helvetica;fontSize=11;fontColor=default;labelBackgroundColor=default;startArrow=classic;startFill=1;endArrow=classic;" edge="1" parent="1" source="Vo4dQc2RpNnDrpm86Aar-78" target="Vo4dQc2RpNnDrpm86Aar-81">
          <mxGeometry relative="1" as="geometry" />
        </mxCell>
        <mxCell id="Vo4dQc2RpNnDrpm86Aar-90" style="edgeStyle=orthogonalEdgeStyle;rounded=0;orthogonalLoop=1;jettySize=auto;html=1;entryX=0.5;entryY=0;entryDx=0;entryDy=0;strokeColor=default;align=center;verticalAlign=middle;fontFamily=Helvetica;fontSize=11;fontColor=default;labelBackgroundColor=default;startArrow=classic;startFill=1;endArrow=classic;" edge="1" parent="1" source="Vo4dQc2RpNnDrpm86Aar-78" target="Vo4dQc2RpNnDrpm86Aar-85">
          <mxGeometry relative="1" as="geometry" />
        </mxCell>
        <mxCell id="Vo4dQc2RpNnDrpm86Aar-78" value="&lt;div style=&quot;font-family: Consolas, &amp;quot;Courier New&amp;quot;, monospace; line-height: 19px; white-space: pre;&quot;&gt;&lt;div style=&quot;line-height: 19px;&quot;&gt;&lt;font style=&quot;font-size: 10px;&quot;&gt;FunciÃ³n&lt;/font&gt;&lt;/div&gt;&lt;div style=&quot;line-height: 19px;&quot;&gt;&lt;font style=&quot;font-size: 10px;&quot;&gt;AnalyzeModel&lt;/font&gt;&lt;/div&gt;&lt;/div&gt;" style="rounded=1;whiteSpace=wrap;html=1;absoluteArcSize=1;arcSize=14;strokeWidth=2;" vertex="1" parent="1">
          <mxGeometry x="540" y="1126" width="100" height="50" as="geometry" />
        </mxCell>
        <mxCell id="Vo4dQc2RpNnDrpm86Aar-86" style="edgeStyle=orthogonalEdgeStyle;curved=1;rounded=0;orthogonalLoop=1;jettySize=auto;html=1;entryX=1;entryY=0.5;entryDx=0;entryDy=0;strokeColor=default;align=center;verticalAlign=middle;fontFamily=Helvetica;fontSize=11;fontColor=default;labelBackgroundColor=default;startArrow=classic;startFill=1;endArrow=classic;" edge="1" parent="1" source="Vo4dQc2RpNnDrpm86Aar-80" target="Vo4dQc2RpNnDrpm86Aar-81">
          <mxGeometry relative="1" as="geometry" />
        </mxCell>
        <mxCell id="Vo4dQc2RpNnDrpm86Aar-87" style="edgeStyle=orthogonalEdgeStyle;curved=1;rounded=0;orthogonalLoop=1;jettySize=auto;html=1;entryX=0;entryY=0.5;entryDx=0;entryDy=0;strokeColor=default;align=center;verticalAlign=middle;fontFamily=Helvetica;fontSize=11;fontColor=default;labelBackgroundColor=default;startArrow=classic;startFill=1;endArrow=classic;" edge="1" parent="1" source="Vo4dQc2RpNnDrpm86Aar-80" target="Vo4dQc2RpNnDrpm86Aar-84">
          <mxGeometry relative="1" as="geometry" />
        </mxCell>
        <mxCell id="Vo4dQc2RpNnDrpm86Aar-80" value="&lt;div style=&quot;font-family: Consolas, &amp;quot;Courier New&amp;quot;, monospace; line-height: 19px; white-space: pre;&quot;&gt;&lt;div style=&quot;line-height: 19px;&quot;&gt;&lt;font style=&quot;font-size: 10px;&quot;&gt;FunciÃ³n&lt;/font&gt;&lt;/div&gt;&lt;div style=&quot;line-height: 19px;&quot;&gt;&lt;font style=&quot;font-size: 10px;&quot;&gt;Prediccion&lt;/font&gt;&lt;/div&gt;&lt;/div&gt;" style="rounded=1;whiteSpace=wrap;html=1;absoluteArcSize=1;arcSize=14;strokeWidth=2;" vertex="1" parent="1">
          <mxGeometry x="364" y="1225" width="100" height="50" as="geometry" />
        </mxCell>
        <mxCell id="Vo4dQc2RpNnDrpm86Aar-81" value="&lt;div style=&quot;font-family: Consolas, &amp;quot;Courier New&amp;quot;, monospace; line-height: 19px; white-space: pre;&quot;&gt;&lt;div style=&quot;line-height: 19px;&quot;&gt;&lt;font style=&quot;font-size: 10px;&quot;&gt;FunciÃ³n&lt;/font&gt;&lt;/div&gt;&lt;div style=&quot;line-height: 19px;&quot;&gt;&lt;font style=&quot;font-size: 10px;&quot;&gt;formatear_prediccion&lt;/font&gt;&lt;/div&gt;&lt;/div&gt;" style="rounded=1;whiteSpace=wrap;html=1;absoluteArcSize=1;arcSize=14;strokeWidth=2;" vertex="1" parent="1">
          <mxGeometry x="161.19999999999993" y="1225" width="127.6" height="50" as="geometry" />
        </mxCell>
        <mxCell id="Vo4dQc2RpNnDrpm86Aar-88" style="edgeStyle=orthogonalEdgeStyle;curved=1;rounded=0;orthogonalLoop=1;jettySize=auto;html=1;entryX=0;entryY=0.5;entryDx=0;entryDy=0;strokeColor=default;align=center;verticalAlign=middle;fontFamily=Helvetica;fontSize=11;fontColor=default;labelBackgroundColor=default;startArrow=classic;startFill=1;endArrow=classic;" edge="1" parent="1" source="Vo4dQc2RpNnDrpm86Aar-84" target="Vo4dQc2RpNnDrpm86Aar-85">
          <mxGeometry relative="1" as="geometry" />
        </mxCell>
        <mxCell id="Vo4dQc2RpNnDrpm86Aar-91" style="edgeStyle=orthogonalEdgeStyle;curved=1;rounded=0;orthogonalLoop=1;jettySize=auto;html=1;exitX=0.5;exitY=0;exitDx=0;exitDy=0;entryX=0.5;entryY=1;entryDx=0;entryDy=0;startArrow=classic;startFill=1;" edge="1" parent="1" source="Vo4dQc2RpNnDrpm86Aar-84" target="Vo4dQc2RpNnDrpm86Aar-78">
          <mxGeometry relative="1" as="geometry" />
        </mxCell>
        <mxCell id="Vo4dQc2RpNnDrpm86Aar-84" value="&lt;div style=&quot;font-family: Consolas, &amp;quot;Courier New&amp;quot;, monospace; line-height: 19px; white-space: pre;&quot;&gt;&lt;div style=&quot;line-height: 19px;&quot;&gt;&lt;font style=&quot;font-size: 10px;&quot;&gt;FunciÃ³n&lt;/font&gt;&lt;/div&gt;&lt;div style=&quot;line-height: 19px;&quot;&gt;&lt;font style=&quot;font-size: 10px;&quot;&gt;MostrarClases&lt;/font&gt;&lt;/div&gt;&lt;/div&gt;" style="rounded=1;whiteSpace=wrap;html=1;absoluteArcSize=1;arcSize=14;strokeWidth=2;" vertex="1" parent="1">
          <mxGeometry x="540" y="1225" width="100" height="50" as="geometry" />
        </mxCell>
        <mxCell id="Vo4dQc2RpNnDrpm86Aar-85" value="&lt;div style=&quot;font-family: Consolas, &amp;quot;Courier New&amp;quot;, monospace; line-height: 19px; white-space: pre;&quot;&gt;&lt;div style=&quot;line-height: 19px;&quot;&gt;&lt;font style=&quot;font-size: 10px;&quot;&gt;FunciÃ³n&lt;/font&gt;&lt;/div&gt;&lt;div style=&quot;line-height: 19px;&quot;&gt;&lt;span style=&quot;font-size: 10px;&quot;&gt;CargarImagen&lt;/span&gt;&lt;/div&gt;&lt;/div&gt;" style="rounded=1;whiteSpace=wrap;html=1;absoluteArcSize=1;arcSize=14;strokeWidth=2;" vertex="1" parent="1">
          <mxGeometry x="720" y="1225" width="100" height="50" as="geometry" />
        </mxCell>
        <mxCell id="Vo4dQc2RpNnDrpm86Aar-93" value="" style="whiteSpace=wrap;html=1;aspect=fixed;fillColor=#009900;strokeColor=#003300;dashed=1;opacity=20;" vertex="1" parent="1">
          <mxGeometry x="110" y="800" width="220" height="220" as="geometry" />
        </mxCell>
        <mxCell id="Vo4dQc2RpNnDrpm86Aar-94" value="Capa HTTP" style="text;html=1;align=center;verticalAlign=middle;whiteSpace=wrap;rounded=0;" vertex="1" parent="1">
          <mxGeometry x="195" y="980" width="60" height="30" as="geometry" />
        </mxCell>
        <mxCell id="Vo4dQc2RpNnDrpm86Aar-95" value="" style="whiteSpace=wrap;html=1;fillColor=#000066;opacity=30;" vertex="1" parent="1">
          <mxGeometry x="350" y="730" width="120" height="360" as="geometry" />
        </mxCell>
        <mxCell id="Vo4dQc2RpNnDrpm86Aar-96" value="Scafolding&amp;nbsp;" style="text;html=1;align=center;verticalAlign=middle;whiteSpace=wrap;rounded=0;" vertex="1" parent="1">
          <mxGeometry x="380" y="1060" width="60" height="30" as="geometry" />
        </mxCell>
        <mxCell id="Vo4dQc2RpNnDrpm86Aar-97" value="" style="whiteSpace=wrap;html=1;fillColor=#990000;opacity=20;perimeterSpacing=1;" vertex="1" parent="1">
          <mxGeometry x="150" y="1111" width="690" height="199" as="geometry" />
        </mxCell>
        <mxCell id="Vo4dQc2RpNnDrpm86Aar-98" value="Capa Predictiva" style="text;html=1;align=center;verticalAlign=middle;whiteSpace=wrap;rounded=0;" vertex="1" parent="1">
          <mxGeometry x="150" y="1111" width="120" height="30" as="geometry" />
        </mxCell>
        <mxCell id="Vo4dQc2RpNnDrpm86Aar-99" value="" style="whiteSpace=wrap;html=1;fillColor=#666600;opacity=30;" vertex="1" parent="1">
          <mxGeometry x="520" y="980" width="180" height="100" as="geometry" />
        </mxCell>
        <mxCell id="Vo4dQc2RpNnDrpm86Aar-100" value="Modelo Predictivo" style="text;html=1;align=center;verticalAlign=middle;whiteSpace=wrap;rounded=0;" vertex="1" parent="1">
          <mxGeometry x="580" y="1050" width="120" height="30" as="geometry" />
        </mxCell>
      </root>
    </mxGraphModel>
  </diagram>
</mxfile>
